# xmcd
#
# Track frame offsets:
#   150
#   15711
#   38461
#   65412
#   83590
#   95130
#   106804
#   118102
#   132375
#   136582
#   150820
#   166992
#   179321
#   190122
#   206768
#   216859
#   226344
#   236476
#   258980
#   273619
#   283055
#   296701
#   304858
#   317173
#   336420
#
# Disc length: 4750 seconds
#
# Revision: 0
# Processed by: cddbd v1.5.2PL0 Copyright (c) Steve Scherf et al.
# Submitted via: uFREEDB ActiveX Control 1.5
#
DISCID=67128c19
DTITLE=SCORT SOM - SCORT SOM
DYEAR=1900
DGENRE=Blues
TTITLE0=SCORT SOM1
TTITLE1=SCORT SOM2
TTITLE2=SCORT SOM3
TTITLE3=SCORT SOM4
TTITLE4=SCORT SOM5
TTITLE5=SCORT SOM6
TTITLE6=SCORT SOM7
TTITLE7=SCORT SOM8
TTITLE8=SCORT SOM9
TTITLE9=SCORT SOM10
TTITLE10=SCORT SOM11
TTITLE11=SCORT SOM12
TTITLE12=SCORT SOM13
TTITLE13=SCORT SOM14
TTITLE14=SCORT SOM15
TTITLE15=SCORT SOM16
TTITLE16=SCORT SOM17
TTITLE17=SCORT SOM18
TTITLE18=SCORT SOM19
TTITLE19=SCORT SOM20
TTITLE20=SCORT SOM21
TTITLE21=SCORT SOM22
TTITLE22=SCORT SOM23
TTITLE23=SCORT SOM24
TTITLE24=SCORT SOM25
EXTD=
EXTT0=
EXTT1=
EXTT2=
EXTT3=
EXTT4=
EXTT5=
EXTT6=
EXTT7=
EXTT8=
EXTT9=
EXTT10=
EXTT11=
EXTT12=
EXTT13=
EXTT14=
EXTT15=
EXTT16=
EXTT17=
EXTT18=
EXTT19=
EXTT20=
EXTT21=
EXTT22=
EXTT23=
EXTT24=
PLAYORDER=
